<?xml version="1.0" encoding="UTF-8"?>
<!DOCTYPE svg PUBLIC "-//W3C//DTD SVG 1.1//EN" "http://www.w3.org/Graphics/SVG/1.1/DTD/svg11.dtd">
<!-- Creator: CorelDRAW 2020 (64 Bit) -->
<svg xmlns="http://www.w3.org/2000/svg" xml:space="preserve" width="200mm" height="200mm" version="1.1" style="shape-rendering:geometricPrecision; text-rendering:geometricPrecision; image-rendering:optimizeQuality; fill-rule:evenodd; clip-rule:evenodd"
viewBox="0 0 20000 20000"
 xmlns:xlink="http://www.w3.org/1999/xlink"
 xmlns:xodm="http://www.corel.com/coreldraw/odm/2003">
 <defs>
  <style type="text/css">
   <![CDATA[
    .fil1 {fill:gray}
    .fil0 {fill:#E6E6E6}
   ]]>
  </style>
 </defs>
 <g id="Camada_x0020_1">
  <metadata id="CorelCorpID_0Corel-Layer"/>
  <g id="_1180164831824">
   <circle class="fil0" cx="9992.4" cy="10007.6" r="10000"/>
   <path class="fil1" d="M9992.49 2497.87c-2323.15,0 -3771.12,1954.67 -3615.33,4174.66 16.55,235.98 43.08,472.82 75.16,709.66 -40.78,-14.34 -84.72,-21.84 -132.33,-21.84 -417.19,0 -195.79,575.79 -33.01,1285.96 162.78,710.16 386.39,1285.87 622.46,1285.87 8.53,0 16.64,-0.85 24.66,-2.22 180.69,547.73 469.83,1165.24 914.92,1664.25 -81.48,2465.96 -1562.55,2366.82 -2424.41,2598.54 -884.04,237.69 -2567.23,93.08 -3409.72,1844.78 1825.75,2411.7 4719.48,3970.07 7977.51,3970.07 3258.11,0 6151.84,-1558.46 7977.6,-3970.24 -842.58,-1751.53 -2525.6,-1606.92 -3409.64,-1844.61 -861.86,-231.72 -2342.93,-132.58 -2424.41,-2598.54 445.09,-499.01 734.23,-1116.52 914.92,-1664.25 8.02,1.37 16.13,2.22 24.66,2.22 236.07,0 459.68,-575.71 622.46,-1285.87 162.78,-710.17 384.18,-1285.96 -33.01,-1285.96 -47.61,0 -91.55,7.5 -132.33,21.84 32.08,-236.84 58.61,-473.68 75.16,-709.66 155.79,-2219.99 -1292.18,-4174.66 -3615.32,-4174.66z"/>
  </g>
 </g>
</svg>
