<?xml version="1.0" encoding="UTF-8"?>
<!DOCTYPE svg PUBLIC "-//W3C//DTD SVG 1.1//EN" "http://www.w3.org/Graphics/SVG/1.1/DTD/svg11.dtd">
<!-- Creator: CorelDRAW 2020 (64 Bit) -->
<svg xmlns="http://www.w3.org/2000/svg" xml:space="preserve" width="200mm" height="200mm" version="1.1" style="shape-rendering:geometricPrecision; text-rendering:geometricPrecision; image-rendering:optimizeQuality; fill-rule:evenodd; clip-rule:evenodd"
viewBox="0 0 20000 20000"
 xmlns:xlink="http://www.w3.org/1999/xlink"
 xmlns:xodm="http://www.corel.com/coreldraw/odm/2003">
 <defs>
  <style type="text/css">
   <![CDATA[
    .fil0 {fill:#FFFFFF}
   ]]>
  </style>
 </defs>
 <g id="Camada_x0020_1">
  <metadata id="CorelCorpID_0Corel-Layer"/>
  <path class="fil0" d="M8277.92 16278.4c433.29,0 784.54,351.26 784.54,784.55 0,433.29 -351.25,784.54 -784.54,784.54l-4518.03 0c-1036.87,0 -1978.92,-423.63 -2661.39,-1106.09 -682.47,-682.48 -1106.1,-1624.55 -1106.1,-2661.41l0 -8146.93c0,-1036.88 423.62,-1978.94 1106.1,-2661.41 682.47,-682.46 1624.52,-1106.09 2661.39,-1106.09l4518.03 0c433.29,0 784.54,351.25 784.54,784.54 0,433.29 -351.25,784.55 -784.54,784.55l-4518.03 0c-603.74,0 -1153.19,247.57 -1552.01,646.39 -398.83,398.82 -646.39,948.26 -646.39,1552.02l0 8146.93c0,603.74 247.56,1153.19 646.39,1552.02 398.82,398.82 948.27,646.39 1552.01,646.39l4518.03 0zm7854.64 -10372.89l3622.97 3540.18 15.34 15.34c301.26,309.72 294.39,805.06 -15.34,1106.33l-7203.3 7038.7c-143.75,162.72 -353.93,265.36 -588.12,265.36 -433.29,0 -784.54,-351.25 -784.54,-784.54l0 -3593.5 -5293.81 0c-1019.29,0 -1853.25,-833.96 -1853.25,-1853.25l0 -3267.22c0,-1019.29 833.96,-1853.26 1853.25,-1853.26l5293.81 0 0 -3593.5 2.23 0c-0.02,-196.62 73.57,-393.44 221.48,-545.5 301.26,-309.73 796.6,-316.6 1106.33,-15.34l3622.95 3540.2z"/>
 </g>
</svg>
