<?xml version="1.0" encoding="UTF-8"?>
<!DOCTYPE svg PUBLIC "-//W3C//DTD SVG 1.1//EN" "http://www.w3.org/Graphics/SVG/1.1/DTD/svg11.dtd">
<!-- Creator: CorelDRAW 2020 (64 Bit) -->
<svg xmlns="http://www.w3.org/2000/svg" xml:space="preserve" width="200mm" height="200mm" version="1.1" style="shape-rendering:geometricPrecision; text-rendering:geometricPrecision; image-rendering:optimizeQuality; fill-rule:evenodd; clip-rule:evenodd"
viewBox="0 0 20000 20000"
 xmlns:xlink="http://www.w3.org/1999/xlink"
 xmlns:xodm="http://www.corel.com/coreldraw/odm/2003">
 <defs>
  <style type="text/css">
   <![CDATA[
    .str0 {stroke:#373435;stroke-width:20;stroke-miterlimit:22.9256}
    .fil3 {fill:#FEFEFE}
    .fil0 {fill:#243145}
    .fil1 {fill:#3B4D69}
    .fil2 {fill:#8799B3}
   ]]>
  </style>
 </defs>
 <g id="Camada_x0020_1">
  <metadata id="CorelCorpID_0Corel-Layer"/>
  <path class="fil0 str0" d="M12492.4 3007.62l0.01 -0.01c-0.01,414 293.35,544.01 818.15,835.11 112.32,60.6 222.78,124.21 331.31,190.66 534.44,319.63 795.59,520.88 1162.32,309.38l1169.09 -674.97c786.16,-453.89 1800.73,-182.04 2254.62,604.12l849.51 1471.37c453.88,786.17 182.03,1800.74 -604.13,2254.63l-1168.72 674.76 0.01 0.01c-398.05,229.8 -312.16,597.67 -312.16,1334.93l-0.03 16.3 0 1.66c-1.39,725.11 -84.09,1088.02 312.01,1316.86l1168.89 674.86c786.16,453.89 1058.01,1468.46 604.12,2254.62l-849.49 1471.38c-453.9,786.16 -1468.47,1058.01 -2254.63,604.12l-1168.72 -674.76 0 0.02c-376.84,-217.59 -644.05,2.38 -1213.24,339.25 -78.31,47.04 -157.61,92.61 -237.86,136.65 -551.72,307.98 -861.06,432.22 -861.06,859.03l0 1349.5c0,907.78 -742.72,1650.5 -1650.5,1650.5l-1699 0.01c-907.78,-0.01 -1650.5,-742.73 -1650.5,-1650.51l0 -1349.52 -0.01 0.01c0.01,-414.06 -293.44,-544.05 -818.4,-835.25 -112.85,-60.87 -223.8,-124.79 -332.82,-191.57 -533.43,-319.14 -794.41,-519.73 -1160.95,-308.11l-1168.7 674.75c-786.16,453.89 -1800.73,182.04 -2254.62,-604.12l-849.51 -1471.37c-453.88,-786.17 -182.03,-1800.74 604.13,-2254.63l1168.72 -674.76 -0.01 -0.01c398.05,-229.8 312.16,-597.67 312.16,-1334.93l0.03 -16.3 0 -1.66c1.39,-725.11 84.09,-1088.02 -312.01,-1316.86l-1168.89 -674.86c-786.16,-453.89 -1058.01,-1468.46 -604.12,-2254.62l849.49 -1471.38c453.9,-786.16 1468.47,-1058.01 2254.63,-604.12l1168.72 674.76 0 -0.01c376.84,217.58 644.05,-2.39 1213.24,-339.26 78.31,-47.04 157.61,-92.61 237.86,-136.65 551.72,-307.98 861.06,-432.22 861.06,-859.03l0 -1349.5c0,-907.78 742.72,-1650.5 1650.5,-1650.5l1699 -0.01c907.78,0.01 1650.5,742.73 1650.5,1650.51l0 1349.52z"/>
  <path class="fil0 str0" d="M12492.4 3007.62l0.01 -0.01c-0.01,362.6 225.04,507.35 633.51,733.28l-6266.88 12533.5c-58.03,-32.09 -119.74,-65.82 -185.05,-102.05 -112.85,-60.87 -223.8,-124.79 -332.82,-191.57 -533.43,-319.14 -794.41,-519.73 -1160.95,-308.11l-1168.7 674.75c-786.16,453.89 -1800.73,182.04 -2254.62,-604.12l-849.51 -1471.37c-453.88,-786.17 -182.03,-1800.74 604.13,-2254.63l1168.72 -674.76 -0.01 -0.01c398.05,-229.8 312.16,-597.67 312.16,-1334.93l0.03 -16.3 0 -1.66c1.39,-725.11 84.09,-1088.02 -312.01,-1316.86l-1168.89 -674.86c-786.16,-453.89 -1058.01,-1468.46 -604.12,-2254.62l849.49 -1471.38c453.9,-786.16 1468.47,-1058.01 2254.63,-604.12l1168.72 674.76 0 -0.01c376.84,217.58 644.05,-2.39 1213.24,-339.26 78.31,-47.04 157.61,-92.61 237.86,-136.65 551.72,-307.98 861.06,-432.22 861.06,-859.03l0 -1349.5c0,-907.78 742.72,-1650.5 1650.5,-1650.5l1699 -0.01c907.78,0.01 1650.5,742.73 1650.5,1650.51l0 1349.52z"/>
  <path class="fil1" d="M12492.4 3007.62l0.01 -0.01c-0.01,362.56 224.99,507.32 633.38,733.21l-6266.78 12533.55c-58.02,-32.09 -119.72,-65.81 -185.02,-102.03 -112.85,-60.87 -223.8,-124.79 -332.82,-191.57 -533.43,-319.14 -794.41,-519.73 -1160.95,-308.11l-1168.7 674.75c-786.16,453.89 -1800.73,182.04 -2254.62,-604.12l-849.51 -1471.37c-453.88,-786.17 -182.03,-1800.74 604.13,-2254.63l1168.72 -674.76 -0.01 -0.01c398.05,-229.8 312.16,-597.67 312.16,-1334.93l0.03 -16.3 0 -1.66c1.39,-725.11 84.09,-1088.02 -312.01,-1316.86l-1168.89 -674.86c-786.16,-453.89 -1058.01,-1468.46 -604.12,-2254.62l849.49 -1471.38c453.9,-786.16 1468.47,-1058.01 2254.63,-604.12l1168.72 674.76 0 -0.01c376.84,217.58 644.05,-2.39 1213.24,-339.26 78.31,-47.04 157.61,-92.61 237.86,-136.65 551.72,-307.98 861.06,-432.22 861.06,-859.03l0 -1349.5c0,-907.78 742.72,-1650.5 1650.5,-1650.5l1699.79 0c907.42,0.44 1649.71,742.98 1649.71,1650.5l0 1349.52z"/>
  <circle class="fil2" cx="9992.4" cy="10007.6" r="4000"/>
  <circle class="fil3" cx="9992.4" cy="10007.6" r="2500"/>
 </g>
</svg>
