<?xml version="1.0" encoding="UTF-8"?>
<!DOCTYPE svg PUBLIC "-//W3C//DTD SVG 1.1//EN" "http://www.w3.org/Graphics/SVG/1.1/DTD/svg11.dtd">
<!-- Creator: CorelDRAW 2020 (64 Bit) -->
<svg xmlns="http://www.w3.org/2000/svg" xml:space="preserve" width="200mm" height="200mm" version="1.1" style="shape-rendering:geometricPrecision; text-rendering:geometricPrecision; image-rendering:optimizeQuality; fill-rule:evenodd; clip-rule:evenodd"
viewBox="0 0 20000 20000"
 xmlns:xlink="http://www.w3.org/1999/xlink"
 xmlns:xodm="http://www.corel.com/coreldraw/odm/2003">
 <defs>
  <style type="text/css">
   <![CDATA[
    .fil1 {fill:#FEFEFE}
    .fil0 {fill:#354966}
   ]]>
  </style>
 </defs>
 <g id="Camada_x0020_1">
  <metadata id="CorelCorpID_0Corel-Layer"/>
  <g id="_2118580624144">
   <path class="fil0" d="M17406.4 18548.85l-14839.9 0c-400.33,0 -724.87,-324.53 -724.87,-724.87 0,-21.52 0.99,-42.81 2.83,-63.84l0.01 -4277.42 -1.41 0 1.41 -326.16 0 -2990.77c0,-47.83 4.67,-94.56 13.54,-139.79l0.98 -227.71 4583.01 -3525.39 3102.74 -2386.73 0.32 -0.24 441.39 -339.54 431.18 331.68c6.6,4.91 13.15,9.91 19.6,15.07l7409.89 5699.92 0.2 0.16 283.95 218.42 0 354.15 -0.01 3316.93 -3.36 0 0.54 4341.26c0,398.77 -323.27,722.04 -722.04,722.04l0 2.83z"/>
   <path class="fil1" d="M12420.78 18548.84l-4871.5 0 0.01 -3185.11 3.35 0 -0.53 -3841.24c0,-398.77 323.27,-722.04 722.04,-722.04l0 -2.84 3424.6 0c400.33,0 724.87,324.54 724.87,724.88 0,21.51 -0.99,42.8 -2.83,63.84l-0.01 3777.4 1.41 0 -1.41 326.16 0 2858.95z"/>
   <path class="fil0" d="M19711.13 8743.07c314.74,242.96 374.43,694.86 132.84,1011.27 -242.38,317.44 -696.24,378.3 -1013.69,135.92l-4070.38 -3120.64 -0.01 0.02 -1417.51 -1086.76 -1.03 -0.79 -3354.91 -2572.11 -8843.84 6780.28 -0.14 -0.17c-316.78,231.82 -762.31,168.58 -1001.64,-144.89 -239.34,-313.46 -182.99,-759.9 124.1,-1004.43l-0.09 -0.12 11.67 -8.94 0.24 -0.2 9270.82 -7107.62c253.24,-202.12 620.49,-214.66 889.67,-9.13l2621.98 2010.19 0 -200.59c0,-398.77 323.27,-722.04 722.04,-722.04l0 -2.83 1417.51 0c400.33,0 724.87,324.54 724.87,724.87 0,21.52 -0.99,42.81 -2.83,63.85l0.01 2330.62 3799.15 2912.68 -8.83 11.56z"/>
  </g>
 </g>
</svg>
