<?xml version="1.0" encoding="UTF-8"?>
<!DOCTYPE svg PUBLIC "-//W3C//DTD SVG 1.1//EN" "http://www.w3.org/Graphics/SVG/1.1/DTD/svg11.dtd">
<!-- Creator: CorelDRAW 2020 (64 Bit) -->
<svg xmlns="http://www.w3.org/2000/svg" xml:space="preserve" width="297mm" height="113.288mm" version="1.1" style="shape-rendering:geometricPrecision; text-rendering:geometricPrecision; image-rendering:optimizeQuality; fill-rule:evenodd; clip-rule:evenodd"
viewBox="0 0 29700 11328.8"
 xmlns:xlink="http://www.w3.org/1999/xlink"
 xmlns:xodm="http://www.corel.com/coreldraw/odm/2003">
 <defs>
  <style type="text/css">
   <![CDATA[
    .fil1 {fill:black}
    .fil2 {fill:#00439B}
    .fil0 {fill:#E6E9EE}
   ]]>
  </style>
 </defs>
 <g id="Camada_x0020_1">
  <metadata id="CorelCorpID_0Corel-Layer"/>
  <g id="_2656104581296">
   <polygon class="fil0" points="-0.53,7.14 27634.59,7.14 29699.47,5671.39 29699.47,5671.66 27634.59,11335.92 -0.53,11335.92 "/>
   <g>
    <rect class="fil1" x="2145.45" y="2556.68" width="1140.37" height="6229.69"/>
    <polygon class="fil1" points="3299.33,2556.68 2158.96,2556.68 4426.18,8786.37 5566.55,8786.37 "/>
    <rect class="fil1" x="6706.92" y="2556.68" width="1140.37" height="6229.69"/>
    <polygon class="fil1" points="6693.4,2556.68 7833.77,2556.68 5566.55,8786.37 4426.18,8786.37 "/>
   </g>
   <g>
    <rect class="fil1" x="16970.24" y="2556.68" width="1140.37" height="6229.69"/>
    <rect class="fil1" x="13549.14" y="2556.68" width="1140.37" height="6229.69"/>
    <polygon class="fil1" points="14703.02,2556.68 13562.65,2556.68 16970.24,8786.37 18110.61,8786.37 "/>
   </g>
   <g>
    <rect class="fil1" transform="matrix(1.21335E-13 3.76571 -1.61901 3.52447E-14 22248.6 2549.94)" width="331.58" height="2203.72"/>
    <polygon class="fil2" points="22248.63,3813.38 22248.63,2564.74 18680.79,5047.21 18680.79,6295.85 "/>
    <rect class="fil1" transform="matrix(1.21335E-13 3.76571 -1.61901 3.52447E-14 22248.6 7544.48)" width="331.58" height="2203.72"/>
    <polygon class="fil2" points="22248.63,7529.68 22248.63,8778.32 18680.79,6295.85 18680.79,5047.21 "/>
   </g>
   <g>
    <path class="fil1" d="M24791.34 4438.76l0 2465.54c0,517.69 -510.55,937.34 -1140.37,937.34l-832.15 0 0 937.34 832.15 0c1259.6,0 2280.73,-839.33 2280.73,-1874.68l0 -2465.54c0,-1035.35 -1021.13,-1874.68 -2280.73,-1874.68l-832.15 0 0 937.34 832.15 0c629.82,0 1140.37,419.65 1140.37,937.34z"/>
    <path class="fil2" d="M22818.82 3202.22l832.15 0c415.35,0 791.49,138.43 1063.71,362.21 272.24,223.75 440.66,532.93 440.66,874.33l0 2465.54c0,341.46 -168.42,650.58 -440.66,874.33 -272.22,223.77 -648.36,362.21 -1063.71,362.21l-832.15 0 0 -598.4 832.15 0c214.43,0 408.57,-71.44 549,-186.89 140.45,-115.42 227.36,-275 227.36,-451.25l0 -2465.54c0,-176.25 -86.91,-335.83 -227.36,-451.26 -140.43,-115.45 -334.57,-186.88 -549,-186.88l-832.15 0 0 -598.4z"/>
   </g>
   <g>
    <path class="fil1" d="M11838.59 4431.36l0 2480.32c0,517.69 -510.55,937.34 -1140.37,937.34 -629.82,0 -1140.37,-419.65 -1140.37,-937.34l0 -2480.32c0,-517.69 510.55,-937.34 1140.37,-937.34 629.82,0 1140.37,419.65 1140.37,937.34zm-3421.11 0l0 2480.32c0,1035.35 1021.13,1874.68 2280.74,1874.68 1259.6,0 2280.73,-839.33 2280.73,-1874.68l0 -2480.32c0,-1035.35 -1021.13,-1874.69 -2280.73,-1874.69 -1259.61,0 -2280.74,839.34 -2280.74,1874.69z"/>
    <path class="fil1" d="M11838.59 4431.36l0 2480.32c0,517.69 -510.55,937.34 -1140.37,937.34 -629.82,0 -1140.37,-419.65 -1140.37,-937.34l0 -2480.32c0,-517.69 510.55,-937.34 1140.37,-937.34 629.82,0 1140.37,419.65 1140.37,937.34zm-3421.11 0l0 2480.32c0,1035.35 1021.13,1874.68 2280.74,1874.68 1259.6,0 2280.73,-839.33 2280.73,-1874.68l0 -2480.32c0,-1035.35 -1021.13,-1874.69 -2280.73,-1874.69 -1259.61,0 -2280.74,839.34 -2280.74,1874.69z"/>
    <path class="fil1" d="M11584.99 7500.96c-209.06,212.29 -528.6,348.06 -886.78,348.06 -629.82,0 -1140.36,-419.66 -1140.36,-937.35l0 -2480.31c0,-150.22 43.06,-292.14 119.46,-417.98l-525.16 -960.09c-451.66,342.53 -734.67,833.1 -734.67,1378.07l0 2480.31c0,1035.35 1021.13,1874.69 2280.73,1874.69 518.98,0 997.37,-142.57 1380.64,-382.54l-493.86 -902.86z"/>
   </g>
  </g>
 </g>
</svg>
