<?xml version="1.0" encoding="UTF-8"?>
<!DOCTYPE svg PUBLIC "-//W3C//DTD SVG 1.1//EN" "http://www.w3.org/Graphics/SVG/1.1/DTD/svg11.dtd">
<!-- Creator: CorelDRAW 2020 (64 Bit) -->
<svg xmlns="http://www.w3.org/2000/svg" xml:space="preserve" width="200mm" height="200mm" version="1.1" style="shape-rendering:geometricPrecision; text-rendering:geometricPrecision; image-rendering:optimizeQuality; fill-rule:evenodd; clip-rule:evenodd"
viewBox="0 0 20000 20000"
 xmlns:xlink="http://www.w3.org/1999/xlink"
 xmlns:xodm="http://www.corel.com/coreldraw/odm/2003">
 <defs>
  <style type="text/css">
   <![CDATA[
    .str0 {stroke:#373435;stroke-width:20;stroke-miterlimit:22.9256}
    .fil0 {fill:#354966}
   ]]>
  </style>
 </defs>
 <g id="Camada_x0020_1">
  <metadata id="CorelCorpID_0Corel-Layer"/>
  <path class="fil0 str0" d="M8833.7 7.6l2317.41 0c737.73,0 1341.31,603.57 1341.31,1341.31l0 6158.67 6158.67 0c737.74,0 1341.31,603.58 1341.31,1341.31l0 2317.41c0,737.73 -603.57,1341.31 -1341.31,1341.31l-6158.67 0 0 6158.68c0,737.73 -603.58,1341.31 -1341.31,1341.31l-2317.41 0c-737.73,0 -1341.31,-603.58 -1341.31,-1341.31l0 -6158.68 -6158.68 0c-737.73,0 -1341.31,-603.58 -1341.31,-1341.31l0 -2317.41c0,-737.73 603.58,-1341.31 1341.31,-1341.31l6158.68 0 0 -6158.67c0,-737.74 603.58,-1341.31 1341.31,-1341.31z"/>
 </g>
</svg>
