<?xml version="1.0" encoding="UTF-8"?>
<!DOCTYPE svg PUBLIC "-//W3C//DTD SVG 1.1//EN" "http://www.w3.org/Graphics/SVG/1.1/DTD/svg11.dtd">
<!-- Creator: CorelDRAW 2020 (64 Bit) -->
<svg xmlns="http://www.w3.org/2000/svg" xml:space="preserve" width="200mm" height="200mm" version="1.1" style="shape-rendering:geometricPrecision; text-rendering:geometricPrecision; image-rendering:optimizeQuality; fill-rule:evenodd; clip-rule:evenodd"
viewBox="0 0 20000 20000"
 xmlns:xlink="http://www.w3.org/1999/xlink"
 xmlns:xodm="http://www.corel.com/coreldraw/odm/2003">
 <defs>
  <style type="text/css">
   <![CDATA[
    .str0 {stroke:#373435;stroke-width:20;stroke-miterlimit:22.9256}
    .fil0 {fill:#FEFEFE}
    .fil5 {fill:#D2D3D5}
    .fil8 {fill:#96989A}
    .fil6 {fill:#848688}
    .fil2 {fill:#373435}
    .fil7 {fill:#D7CC75}
    .fil9 {fill:#889FAC}
    .fil10 {fill:#A6C0CF}
    .fil3 {fill:#243145}
    .fil4 {fill:#354966}
    .fil11 {fill:#8799B3}
    .fil12 {fill:#9FB5D4}
    .fil1 {fill:#0098DA;fill-rule:nonzero}
   ]]>
  </style>
 </defs>
 <g id="Camada_x0020_1">
  <metadata id="CorelCorpID_0Corel-Layer"/>
  <rect class="fil0 str0" x="1885.48" y="1883.3" width="16213.81" height="14872.14"/>
  <path class="fil1" d="M9816 5782.86c0,-337.7 -162.09,-637.13 -440.98,-896.22 -423.87,-393.77 -1109.7,-694.76 -1914.92,-898.82 -817.94,-207.28 -1754.92,-312.57 -2666.71,-312.57 -1605.59,0 -3119.5,321.94 -3734.26,983.68l-257.7 -239.78c685.38,-737.76 2299.42,-1096.68 3991.96,-1096.68 938.48,0 1905.37,109 2752.15,323.59 859.49,217.81 1599.32,546.31 2069.26,982.88 350.36,325.48 553.98,710.23 553.98,1153.92l-352.78 0z"/>
  <path class="fil2" d="M1448.4 20007.6l17087.97 0c63.08,0 114.7,-51.61 114.7,-114.69l0 -365.78 -17317.36 0 0 -366.53 -0.01 0.74 0 731.57c0,63.08 51.62,114.69 114.7,114.69z"/>
  <path class="fil3" d="M8346.25 7.6l10304.84 0c737.74,0 1341.31,603.64 1341.31,1341.31l0 16836.91c0,737.54 -603.77,1341.31 -1341.31,1341.31l-17317.38 0 0 -3735.53 14283.25 0 1553.2 -1553.2 0 -9907.47 -1553.2 -1553.17 -7270.71 0 0 -2770.16z"/>
  <path class="fil4" d="M1333.71 7.6l8658.68 0 0 2770.16 -5624.54 0 -1553.2 1553.17 0 9907.47 1553.2 1553.2 5624.54 0 0 3735.53 -8658.68 0c-737.7,0 -1341.31,-603.58 -1341.31,-1341.31l0 -16836.91c0,-737.73 603.58,-1341.31 1341.31,-1341.31z"/>
  <rect class="fil5" x="2515.13" y="12820.78" width="14954.51" height="681.9"/>
  <rect class="fil6" x="2257.22" y="6725.81" width="15470.34" height="858.1"/>
  <polygon class="fil7" points="10518.47,8526.85 10518.47,8882.71 9992.39,9408.81 9992.39,9408.81 9466.31,8882.71 9466.31,8526.85 "/>
  <rect class="fil8" x="8860.04" y="5782.86" width="2264.7" height="2743.99"/>
  <rect class="fil6" x="4344.42" y="12353.14" width="11295.93" height="467.64"/>
  <polygon class="fil5" points="2515.15,12820.78 9992.39,12820.78 9992.39,13502.68 2515.15,13502.68 "/>
  <polygon class="fil6" points="4344.44,12353.14 9992.39,12353.14 9992.39,12820.78 4344.44,12820.78 "/>
  <rect class="fil9" x="3931.04" y="17411.9" width="12122.69" height="1254.36"/>
  <polygon class="fil10" points="3931.06,17411.9 9992.39,17411.9 9992.39,18666.26 3931.06,18666.26 "/>
  <path class="fil11" d="M4367.85 1848.62l11633.81 0 2097.65 2097.58 0 10676.94 -2097.62 2097.61 -12018.58 0 -2097.61 -2097.61 0 -10676.94 2097.65 -2097.58 384.7 0zm0 929.14l11249.11 0 1553.2 1553.17 0 9907.47 -1553.2 1553.2 -11249.11 0 -1553.2 -1553.2 0 -9907.47 1553.2 -1553.17z"/>
  <polygon class="fil12" points="4367.85,1848.62 9992.39,1848.62 9992.39,2777.76 4367.85,2777.76 2814.65,4330.93 2814.65,14238.4 4367.85,15791.6 9992.39,15791.6 9992.39,16720.75 3983.11,16720.75 1885.5,14623.14 1885.5,3946.2 3983.15,1848.62 "/>
 </g>
</svg>
