<?xml version="1.0" encoding="UTF-8"?>
<!DOCTYPE svg PUBLIC "-//W3C//DTD SVG 1.1//EN" "http://www.w3.org/Graphics/SVG/1.1/DTD/svg11.dtd">
<!-- Creator: CorelDRAW 2020 (64 Bit) -->
<svg xmlns="http://www.w3.org/2000/svg" xml:space="preserve" width="200mm" height="200mm" version="1.1" style="shape-rendering:geometricPrecision; text-rendering:geometricPrecision; image-rendering:optimizeQuality; fill-rule:evenodd; clip-rule:evenodd"
viewBox="0 0 20000 20000"
 xmlns:xlink="http://www.w3.org/1999/xlink"
 xmlns:xodm="http://www.corel.com/coreldraw/odm/2003">
 <defs>
  <style type="text/css">
   <![CDATA[
    .fil3 {fill:#D2D3D5}
    .fil1 {fill:#96989A}
    .fil0 {fill:#848688}
    .fil10 {fill:#727376}
    .fil2 {fill:#373435}
    .fil8 {fill:#D7CC75}
    .fil6 {fill:#889FAC}
    .fil7 {fill:#A6C0CF}
    .fil4 {fill:#243145}
    .fil5 {fill:#354966}
    .fil9 {fill:#96989A;fill-rule:nonzero}
    .fil11 {fill:#0098DA;fill-rule:nonzero}
   ]]>
  </style>
 </defs>
 <g id="Camada_x0020_1">
  <metadata id="CorelCorpID_0Corel-Layer"/>
  <path class="fil0" d="M15651.04 17995.57l0 -16646.6 -11317.18 0 0 16646.6c0,368.9 -301.8,670.69 -670.68,670.69l-0.01 0c-368.88,0 -670.68,-301.79 -670.68,-670.69l0 -17317.28 0 -0.01c0,-5.76 0.07,-11.51 0.22,-17.23l0 -0.01c0.15,-5.73 0.37,-11.44 0.66,-17.13l0 -0.01c0.29,-5.69 0.65,-11.37 1.09,-17.02l0 -0.01c0.43,-5.65 0.94,-11.29 1.51,-16.91 0.58,-5.62 1.21,-11.2 1.93,-16.79l0 -0.01c0.71,-5.57 1.5,-11.13 2.35,-16.66l0 -0.01c0.85,-5.53 1.77,-11.04 2.76,-16.53 0.99,-5.49 2.04,-10.96 3.17,-16.4l0 -0.01c1.12,-5.44 2.31,-10.87 3.56,-16.26 1.25,-5.4 2.57,-10.76 3.96,-16.11 1.38,-5.35 2.82,-10.68 4.34,-15.97 1.51,-5.3 3.09,-10.55 4.73,-15.8 1.64,-5.25 3.34,-10.45 5.11,-15.64l0 -0.01c1.76,-5.18 3.6,-10.34 5.48,-15.47 1.89,-5.13 3.83,-10.23 5.84,-15.3 2.01,-5.07 4.08,-10.12 6.21,-15.13 2.13,-5.01 4.32,-9.98 6.56,-14.93 2.25,-4.95 4.56,-9.87 6.92,-14.75 2.36,-4.88 4.78,-9.75 7.26,-14.56 2.48,-4.82 5,-9.6 7.59,-14.35 2.59,-4.75 5.24,-9.47 7.94,-14.15 2.7,-4.68 5.45,-9.32 8.26,-13.93l0 -0.01c2.81,-4.61 5.68,-9.18 8.59,-13.71l0 -0.01c2.92,-4.54 5.88,-9.03 8.9,-13.49 3.02,-4.46 6.1,-8.89 9.22,-13.27l0 -0.01c3.13,-4.39 6.3,-8.72 9.53,-13.03 3.22,-4.3 6.51,-8.58 9.83,-12.8l0 -0.01c3.33,-4.23 6.69,-8.4 10.12,-12.55 3.42,-4.14 6.9,-8.25 10.42,-12.31 3.52,-4.06 7.1,-8.08 10.71,-12.05l0 -0.01c3.61,-3.97 7.28,-7.91 10.98,-11.79 3.71,-3.89 7.46,-7.73 11.26,-11.53 3.8,-3.8 7.64,-7.55 11.53,-11.26 3.89,-3.71 7.83,-7.37 11.8,-10.98l0 -0.01c3.97,-3.61 7.99,-7.18 12.05,-10.7 4.06,-3.52 8.16,-6.99 12.31,-10.42 4.14,-3.42 8.33,-6.79 12.56,-10.12 4.23,-3.33 8.49,-6.6 12.8,-9.83 4.31,-3.23 8.65,-6.4 13.04,-9.53 4.38,-3.12 8.81,-6.2 13.27,-9.22 4.46,-3.02 8.96,-5.99 13.5,-8.9 4.54,-2.92 9.11,-5.78 13.72,-8.59 4.61,-2.81 9.25,-5.56 13.93,-8.26 4.68,-2.7 9.41,-5.35 14.15,-7.94 4.75,-2.59 9.53,-5.11 14.35,-7.59l0 -0.01c4.82,-2.48 9.68,-4.89 14.56,-7.25 4.88,-2.36 9.8,-4.68 14.75,-6.92 4.95,-2.25 9.92,-4.43 14.93,-6.56 5.01,-2.13 10.06,-4.2 15.13,-6.21 5.07,-2.01 10.17,-3.96 15.3,-5.84 5.13,-1.89 10.29,-3.71 15.47,-5.48 5.19,-1.76 10.41,-3.47 15.65,-5.11 5.24,-1.64 10.5,-3.22 15.8,-4.73 5.29,-1.51 10.63,-2.96 15.97,-4.34 5.35,-1.38 10.72,-2.7 16.11,-3.96 5.4,-1.25 10.82,-2.44 16.26,-3.56 5.44,-1.12 10.92,-2.19 16.41,-3.17 5.49,-0.99 10.99,-1.91 16.53,-2.76 5.53,-0.85 11.09,-1.64 16.67,-2.35 5.58,-0.72 11.18,-1.35 16.8,-1.93 5.62,-0.58 11.25,-1.08 16.91,-1.51 5.66,-0.44 11.33,-0.8 17.03,-1.09 5.69,-0.3 11.41,-0.52 17.14,-0.66 5.73,-0.15 11.47,-0.22 17.24,-0.22l0.01 0 12658.54 0 0.01 0 0.01 0c5.76,0 11.5,0.07 17.23,0.22l0.01 0c5.73,0.15 11.44,0.37 17.13,0.66l0.01 0c5.69,0.29 11.36,0.65 17.02,1.09l0.01 0c5.65,0.43 11.29,0.94 16.9,1.51l0.01 0c5.62,0.58 11.21,1.22 16.79,1.93 5.58,0.71 11.13,1.5 16.67,2.35 5.54,0.85 11.04,1.77 16.53,2.76l0.01 0c5.49,0.99 10.96,2.05 16.4,3.17 5.45,1.12 10.86,2.3 16.26,3.56l0.01 0c5.39,1.25 10.75,2.57 16.1,3.96l0.01 0c5.34,1.38 10.67,2.83 15.96,4.34 5.3,1.51 10.55,3.09 15.8,4.73l0.01 0c5.24,1.64 10.46,3.35 15.64,5.11 5.19,1.77 10.34,3.59 15.47,5.48l0.01 0c5.13,1.89 10.22,3.83 15.29,5.84l0.01 0c5.07,2.01 10.12,4.09 15.12,6.21 5.01,2.13 9.98,4.31 14.93,6.56l0.01 0c4.95,2.25 9.86,4.56 14.74,6.92l0.01 0c4.88,2.36 9.73,4.77 14.55,7.25l0 0.01c4.82,2.48 9.6,5 14.35,7.59 4.75,2.59 9.47,5.24 14.15,7.94 4.68,2.7 9.33,5.45 13.93,8.26l0.01 0c4.61,2.81 9.18,5.68 13.71,8.59l0.01 0c4.53,2.91 9.03,5.88 13.49,8.9l0.01 0c4.46,3.02 8.88,6.09 13.26,9.22l0.01 0c4.38,3.12 8.73,6.31 13.03,9.53 4.31,3.23 8.58,6.5 12.8,9.83l0.01 0c4.22,3.32 8.41,6.7 12.55,10.12 4.14,3.42 8.25,6.9 12.31,10.42 4.06,3.52 8.07,7.09 12.05,10.7l0.01 0.01c3.97,3.61 7.91,7.27 11.79,10.98 3.89,3.71 7.73,7.46 11.53,11.26 3.8,3.8 7.55,7.64 11.26,11.53 3.71,3.89 7.37,7.82 10.98,11.79l0.01 0.01c3.61,3.97 7.19,8 10.7,12.05 3.52,4.06 6.99,8.16 10.42,12.31 3.43,4.15 6.79,8.33 10.12,12.55l0 0.01c3.32,4.22 6.61,8.5 9.83,12.8 3.23,4.31 6.41,8.66 9.53,13.03l0 0.01c3.12,4.38 6.2,8.81 9.22,13.27 3.02,4.46 5.98,8.96 8.9,13.49l0 0.01c2.91,4.53 5.79,9.11 8.59,13.71l0 0.01c2.81,4.61 5.56,9.25 8.26,13.93 2.7,4.68 5.36,9.4 7.94,14.15 2.59,4.75 5.11,9.53 7.59,14.35 2.48,4.82 4.9,9.68 7.26,14.56 2.36,4.88 4.68,9.8 6.92,14.75 2.25,4.95 4.44,9.92 6.56,14.93 2.13,5.01 4.2,10.06 6.21,15.13 2.01,5.07 3.95,10.17 5.84,15.3 1.89,5.13 3.71,10.29 5.48,15.47l0 0.01c1.76,5.19 3.47,10.4 5.11,15.64 1.64,5.24 3.22,10.5 4.73,15.8 1.51,5.3 2.96,10.63 4.34,15.97 1.38,5.35 2.7,10.71 3.96,16.11 1.25,5.39 2.44,10.82 3.56,16.26l0 0.01c1.12,5.44 2.19,10.91 3.17,16.4 0.99,5.49 1.91,11 2.76,16.53l0 0.01c0.85,5.53 1.63,11.08 2.35,16.66l0 0.01c0.71,5.58 1.36,11.18 1.93,16.79 0.57,5.61 1.08,11.26 1.51,16.91l0 0.01c0.44,5.66 0.8,11.33 1.09,17.02l0 0.01c0.29,5.69 0.51,11.41 0.66,17.13l0 0.01c0.15,5.74 0.22,11.46 0.22,17.23l0 0.01 0 17317.28c0,368.9 -301.8,670.69 -670.68,670.69l-0.01 0c-368.88,0 -670.68,-301.79 -670.68,-670.69z"/>
  <path class="fil1" d="M9992.38 1348.97l-5658.52 0 0 14397.34 -1341.37 0 0 -15068.02 0 -0.01 0 -2.43c0.02,-4.95 0.09,-9.88 0.22,-14.8l0 -0.01c0.15,-5.73 0.37,-11.44 0.66,-17.13l0 -0.01c0.29,-5.69 0.65,-11.37 1.09,-17.02l0 -0.01c0.43,-5.65 0.94,-11.29 1.51,-16.91 0.58,-5.62 1.21,-11.2 1.93,-16.79l0 -0.01c0.71,-5.57 1.5,-11.13 2.35,-16.66l0 -0.01c0.85,-5.53 1.77,-11.04 2.76,-16.53 0.99,-5.49 2.04,-10.96 3.17,-16.4l0 -0.01c1.12,-5.44 2.31,-10.87 3.56,-16.26 1.25,-5.4 2.57,-10.76 3.96,-16.11 1.38,-5.35 2.82,-10.68 4.34,-15.97 1.51,-5.3 3.09,-10.55 4.73,-15.8 1.64,-5.25 3.34,-10.45 5.11,-15.64l0 -0.01c1.76,-5.18 3.6,-10.34 5.48,-15.47 1.89,-5.13 3.83,-10.23 5.84,-15.3 2.01,-5.07 4.08,-10.12 6.21,-15.13 2.13,-5.01 4.32,-9.98 6.56,-14.93 2.25,-4.95 4.56,-9.87 6.92,-14.75 2.36,-4.88 4.78,-9.75 7.26,-14.56 2.48,-4.82 5,-9.6 7.59,-14.35 2.59,-4.75 5.24,-9.47 7.94,-14.15 2.7,-4.68 5.45,-9.32 8.26,-13.93l0 -0.01c2.81,-4.61 5.68,-9.18 8.59,-13.71l0 -0.01c2.92,-4.54 5.88,-9.03 8.9,-13.49 3.02,-4.46 6.1,-8.89 9.22,-13.27l0 -0.01c3.13,-4.39 6.3,-8.72 9.53,-13.03 3.22,-4.3 6.51,-8.58 9.83,-12.8l0 -0.01c3.33,-4.23 6.69,-8.4 10.12,-12.55 3.42,-4.14 6.9,-8.25 10.42,-12.31 3.52,-4.06 7.1,-8.08 10.71,-12.05l0 -0.01c3.61,-3.97 7.28,-7.91 10.98,-11.79 3.71,-3.89 7.46,-7.73 11.26,-11.53 3.8,-3.8 7.64,-7.55 11.53,-11.26 3.89,-3.71 7.83,-7.37 11.8,-10.98l0 -0.01c3.97,-3.61 7.99,-7.18 12.05,-10.7 4.06,-3.52 8.16,-6.99 12.31,-10.42 4.14,-3.42 8.33,-6.79 12.56,-10.12 4.23,-3.33 8.49,-6.6 12.8,-9.83 4.31,-3.23 8.65,-6.4 13.04,-9.53 4.38,-3.12 8.81,-6.2 13.27,-9.22 4.46,-3.02 8.96,-5.99 13.5,-8.9 4.54,-2.92 9.11,-5.78 13.72,-8.59 4.61,-2.81 9.25,-5.56 13.93,-8.26 4.68,-2.7 9.41,-5.35 14.15,-7.94 4.75,-2.59 9.53,-5.11 14.35,-7.59l0 -0.01c4.82,-2.48 9.68,-4.89 14.56,-7.25 4.88,-2.36 9.8,-4.68 14.75,-6.92 4.95,-2.25 9.92,-4.43 14.93,-6.56 5.01,-2.13 10.06,-4.2 15.13,-6.21 5.07,-2.01 10.17,-3.96 15.3,-5.84 5.13,-1.89 10.29,-3.71 15.47,-5.48 5.19,-1.76 10.41,-3.47 15.65,-5.11 5.24,-1.64 10.5,-3.22 15.8,-4.73 5.29,-1.51 10.63,-2.96 15.97,-4.34 5.35,-1.38 10.72,-2.7 16.11,-3.96 5.4,-1.25 10.82,-2.44 16.26,-3.56 5.44,-1.12 10.92,-2.19 16.41,-3.17 5.49,-0.99 10.99,-1.91 16.53,-2.76 5.53,-0.85 11.09,-1.64 16.67,-2.35 5.58,-0.72 11.18,-1.35 16.8,-1.93 5.62,-0.58 11.25,-1.08 16.91,-1.51 5.66,-0.44 11.33,-0.8 17.03,-1.09 5.69,-0.3 11.41,-0.52 17.14,-0.66 4.92,-0.13 9.86,-0.2 14.81,-0.22l0.27 0 0.27 0 0.27 0 0.27 0 0.27 0 0.27 0 0.27 0 0.27 0 0.27 0 0.01 0 6329.2 0 0 1341.37z"/>
  <path class="fil2" d="M4448.36 20007.6l11088.05 0c63.08,0 114.68,-51.61 114.68,-114.69l0 -731.57c0,-63.08 -51.6,-114.69 -114.68,-114.69l-11088.05 0c-63.09,0 -114.7,51.61 -114.7,114.69l0 731.57c0,63.08 51.61,114.69 114.7,114.69z"/>
  <rect class="fil3" x="6535.7" y="14819.27" width="6913.37" height="927.04"/>
  <rect class="fil0" x="6164.3" y="14351.64" width="7656.18" height="467.64"/>
  <polygon class="fil0" points="6164.31,14351.64 9992.38,14351.64 9992.38,14819.27 6164.31,14819.27 "/>
  <path class="fil4" d="M16992.43 17126.8l0 1068.74c0,737.44 -603.9,1341.34 -1341.34,1341.34l-11317.36 0c-737.44,0 -1341.34,-603.57 -1341.34,-1341.34l0 -1068.74 0 -1380.49 14000.04 0 0 1380.49z"/>
  <path class="fil5" d="M9992.38 19536.88l-5658.55 0c-737.67,0 -1341.34,-603.57 -1341.34,-1341.34l0 -1068.74 0 -1380.49 6999.89 0 0 3790.57z"/>
  <rect class="fil6" x="5519.79" y="16941.18" width="8945.19" height="1254.36"/>
  <polygon class="fil7" points="5519.8,16941.18 9992.38,16941.18 9992.38,18195.54 5519.8,18195.54 "/>
  <polygon class="fil8" points="9992.45,10631.28 9992.45,10631.28 10413.04,11051.89 10413.04,11620.9 9992.45,12041.51 9992.45,12041.51 9571.86,11620.9 9571.86,11051.89 "/>
  <rect class="fil1" x="9095.6" y="9163.09" width="1793.7" height="2173.31"/>
  <path class="fil4" d="M16992.41 4244.75l-1772.9 0c-169.22,0 -307.66,138.45 -307.66,307.66l0 1175.95c0,169.22 138.44,307.67 307.66,307.67l1772.9 0 0 -1791.28z"/>
  <path class="fil5" d="M2992.49 4244.75l1772.9 0c169.22,0 307.66,138.45 307.66,307.66l0 1175.95c0,169.22 -138.44,307.67 -307.66,307.67l-1772.9 0 0 -1791.28z"/>
  <g id="_2117724666480">
   <polygon class="fil9" points="4910.17,5275.16 4775.4,5112.28 5101.16,4842.74 5235.93,5005.62 9258.48,9857.82 9393.25,10020.7 9067.49,10290.24 8932.72,10127.36 "/>
   <circle class="fil10" cx="9095.6" cy="9992.59" r="355.94"/>
   <circle class="fil10" cx="5073.05" cy="5140.39" r="355.94"/>
  </g>
  <g id="_2117724667776">
   <polygon class="fil9" points="15074.73,5275.16 15209.5,5112.28 14883.74,4842.74 14748.97,5005.62 10726.42,9857.82 10591.65,10020.7 10917.41,10290.24 11052.18,10127.36 "/>
   <circle class="fil10" cx="10889.3" cy="9992.59" r="355.94"/>
   <circle class="fil10" cx="14911.85" cy="5140.39" r="355.94"/>
  </g>
  <path class="fil11" d="M9816.75 9164.47c-21.42,-1926.48 -401.66,-3480.73 -1271.6,-4526.85 -862.4,-1037.04 -2219.77,-1582.41 -4204.4,-1504.61l-13.78 -351.4c2104.55,-82.51 3554.63,508.67 4488.28,1631.39 926.1,1113.65 1330.59,2742.49 1352.9,4748.71l-351.4 2.76z"/>
 </g>
</svg>
