<?xml version="1.0" encoding="UTF-8"?>
<!DOCTYPE svg PUBLIC "-//W3C//DTD SVG 1.1//EN" "http://www.w3.org/Graphics/SVG/1.1/DTD/svg11.dtd">
<!-- Creator: CorelDRAW 2020 (64 Bit) -->
<svg xmlns="http://www.w3.org/2000/svg" xml:space="preserve" width="200mm" height="200mm" version="1.1" style="shape-rendering:geometricPrecision; text-rendering:geometricPrecision; image-rendering:optimizeQuality; fill-rule:evenodd; clip-rule:evenodd"
viewBox="0 0 20000 20000"
 xmlns:xlink="http://www.w3.org/1999/xlink"
 xmlns:xodm="http://www.corel.com/coreldraw/odm/2003">
 <defs>
  <style type="text/css">
   <![CDATA[
    .str0 {stroke:#FEFEFE;stroke-width:20;stroke-miterlimit:22.9256}
    .fil0 {fill:#FEFEFE}
    .fil4 {fill:#D2D3D5}
    .fil6 {fill:#96989A}
    .fil1 {fill:#848688}
    .fil3 {fill:#373435}
    .fil5 {fill:#D7CC75}
    .fil9 {fill:#889FAC}
    .fil10 {fill:#A6C0CF}
    .fil7 {fill:#243145}
    .fil8 {fill:#354966}
    .fil2 {fill:#0098DA;fill-rule:nonzero}
   ]]>
  </style>
 </defs>
 <g id="Camada_x0020_1">
  <metadata id="CorelCorpID_0Corel-Layer"/>
  <rect class="fil0 str0" x="1860.51" y="1883.31" width="16248.57" height="14093.48"/>
  <path class="fil1" d="M-7.6 15746.31l0 -14533.67 0 -534.37 0 -0.01c0,-5.76 0.07,-11.5 0.22,-17.23l0 -0.01c0.15,-5.73 0.37,-11.44 0.66,-17.13l0 -0.01c0.29,-5.69 0.65,-11.36 1.09,-17.02l0 -0.01c0.43,-5.65 0.94,-11.29 1.51,-16.9l0 -0.01c0.57,-5.62 1.22,-11.21 1.93,-16.78l0 -0.01c0.71,-5.57 1.5,-11.13 2.35,-16.66l0 -0.01c0.85,-5.53 1.77,-11.04 2.76,-16.53l0 -0.01c0.99,-5.49 2.05,-10.95 3.17,-16.39l0 -0.01c1.12,-5.44 2.3,-10.87 3.56,-16.26 1.25,-5.39 2.57,-10.76 3.96,-16.11l0 -0.01c2.77,-10.69 5.79,-21.28 9.07,-31.76l0 -0.01c1.64,-5.24 3.35,-10.45 5.11,-15.63l0 -0.01c1.76,-5.19 3.59,-10.34 5.48,-15.47 1.89,-5.13 3.83,-10.23 5.84,-15.3l0 -0.01c2.01,-5.07 4.09,-10.11 6.21,-15.11l0 -0.01c2.13,-5.01 4.32,-9.98 6.56,-14.93l0 -0.01c2.25,-4.95 4.55,-9.85 6.92,-14.74 2.36,-4.88 4.78,-9.74 7.26,-14.55l0 -0.01c4.95,-9.63 10.13,-19.13 15.53,-28.49l0 -0.01c2.7,-4.68 5.46,-9.32 8.26,-13.93 2.81,-4.61 5.67,-9.18 8.59,-13.72 2.92,-4.54 5.88,-9.04 8.9,-13.5l0.01 0c3.02,-4.46 6.08,-8.89 9.21,-13.27l0.01 0c3.12,-4.38 6.3,-8.72 9.52,-13.03l0 -0.01c3.23,-4.31 6.5,-8.57 9.83,-12.8 6.65,-8.45 13.5,-16.74 20.54,-24.86l0 -0.01c3.52,-4.06 7.09,-8.08 10.7,-12.05l0.01 0c3.61,-3.97 7.28,-7.91 10.98,-11.79l0 -0.01c3.71,-3.89 7.47,-7.73 11.26,-11.52l0 -0.01c3.8,-3.8 7.65,-7.55 11.53,-11.25l0 -0.01c3.89,-3.71 7.82,-7.37 11.79,-10.98l0.01 0c3.97,-3.61 7.99,-7.18 12.05,-10.7 4.06,-3.52 8.16,-6.99 12.31,-10.42 8.29,-6.85 16.75,-13.5 25.36,-19.95l0 -0.01c4.31,-3.23 8.64,-6.39 13.03,-9.52l0.01 0c4.38,-3.12 8.8,-6.2 13.26,-9.22l0.01 0c4.46,-3.02 8.96,-5.99 13.49,-8.9l0.01 0c4.53,-2.91 9.1,-5.79 13.71,-8.59l0.01 0c4.61,-2.81 9.25,-5.56 13.93,-8.26l0.01 0c4.68,-2.7 9.39,-5.35 14.14,-7.94 14.25,-7.77 28.81,-15.03 43.65,-21.77l0.01 0c4.94,-2.25 9.92,-4.43 14.93,-6.56l0.01 0c5.01,-2.13 10.04,-4.21 15.11,-6.21l0.01 0c5.07,-2.01 10.16,-3.96 15.29,-5.84l0.01 0c5.13,-1.89 10.29,-3.71 15.47,-5.48l0.01 0c5.18,-1.76 10.39,-3.48 15.63,-5.11l0.01 0c5.24,-1.64 10.51,-3.22 15.8,-4.73l0.01 0c5.29,-1.51 10.61,-2.96 15.95,-4.34l0.01 0c5.34,-1.38 10.71,-2.7 16.1,-3.96l0.01 0c5.39,-1.25 10.82,-2.44 16.26,-3.56l0.01 0c5.44,-1.12 10.9,-2.19 16.39,-3.17l0.01 0c5.49,-0.99 11,-1.91 16.53,-2.76l0.01 0c5.53,-0.85 11.09,-1.63 16.66,-2.35l0.01 0c5.57,-0.71 11.17,-1.36 16.78,-1.93l0.01 0c5.62,-0.57 11.25,-1.08 16.9,-1.51l0.01 0c5.65,-0.44 11.34,-0.8 17.02,-1.09l0.01 0c5.69,-0.29 11.41,-0.51 17.13,-0.66l0.01 0c5.73,-0.15 11.46,-0.22 17.23,-0.22l0.01 0 534.36 0 17589.91 0 534.36 0 0.01 0c5.76,0 11.5,0.07 17.23,0.22l0.01 0c5.73,0.15 11.44,0.37 17.13,0.66l0.01 0c5.69,0.29 11.36,0.65 17.02,1.09l0.01 0c5.65,0.43 11.29,0.94 16.9,1.51l0.01 0c5.62,0.58 11.2,1.22 16.78,1.93l0.01 0c5.57,0.71 11.13,1.5 16.66,2.35l0.01 0c5.53,0.85 11.04,1.77 16.53,2.76l0.01 0c5.49,0.99 10.95,2.05 16.39,3.17l0.01 0c5.44,1.12 10.87,2.31 16.26,3.56l0.01 0c5.39,1.25 10.75,2.57 16.1,3.96l0.01 0c5.34,1.38 10.66,2.82 15.95,4.34l0.01 0c5.29,1.51 10.56,3.09 15.8,4.73l0.01 0c5.24,1.64 10.45,3.34 15.63,5.11l0.01 0c5.18,1.76 10.34,3.59 15.47,5.48l0.01 0c5.13,1.89 10.22,3.84 15.29,5.84l0.01 0c5.07,2.01 10.11,4.08 15.11,6.21l0.01 0c5.01,2.13 9.98,4.32 14.93,6.56l0.01 0c14.84,6.74 29.4,14 43.65,21.77 4.75,2.59 9.47,5.24 14.15,7.94 4.68,2.7 9.33,5.45 13.93,8.26l0.01 0c4.61,2.81 9.18,5.68 13.71,8.59l0.01 0c4.53,2.91 9.03,5.88 13.49,8.9l0.01 0c4.46,3.02 8.88,6.09 13.26,9.22l0.01 0c4.38,3.12 8.72,6.3 13.03,9.52l0 0.01c8.61,6.45 17.07,13.11 25.36,19.95 4.14,3.42 8.25,6.9 12.31,10.42 4.06,3.52 8.08,7.08 12.05,10.7l0.01 0c3.97,3.61 7.9,7.28 11.79,10.98l0 0.01c3.89,3.71 7.73,7.46 11.53,11.25l0 0.01c3.8,3.8 7.55,7.63 11.26,11.52l0 0.01c3.71,3.89 7.38,7.82 10.99,11.79 3.61,3.97 7.18,7.99 10.7,12.05l0 0.01c3.52,4.06 7,8.16 10.42,12.3l0 0.01c3.42,4.14 6.8,8.33 10.12,12.55l0.01 0c3.33,4.22 6.59,8.5 9.82,12.8l0 0.01c3.23,4.31 6.4,8.64 9.53,13.03 3.13,4.38 6.2,8.81 9.22,13.27 3.02,4.46 5.99,8.97 8.9,13.5l0.01 0c2.92,4.54 5.77,9.11 8.58,13.72 2.81,4.6 5.56,9.26 8.26,13.93l0.01 0.01c2.7,4.68 5.34,9.39 7.93,14.14l0 0.01c2.59,4.75 5.12,9.53 7.59,14.34l0.01 0.01c2.48,4.82 4.89,9.67 7.25,14.55l0.01 0c2.36,4.88 4.67,9.79 6.91,14.74l0 0.01c2.25,4.94 4.43,9.93 6.56,14.93l0.01 0.01c2.13,5.01 4.2,10.04 6.2,15.11l0 0.01c2.01,5.07 3.95,10.18 5.84,15.3l0.01 0c1.89,5.12 3.7,10.29 5.47,15.47l0.01 0.01c1.76,5.18 3.47,10.39 5.1,15.63l0 0.01c1.64,5.24 3.22,10.51 4.73,15.8l0 0.01c1.51,5.29 2.96,10.61 4.34,15.95l0.01 0.01c1.38,5.34 2.69,10.71 3.95,16.11l0.01 0c1.25,5.39 2.43,10.83 3.55,16.26l0.01 0.01c1.12,5.44 2.18,10.91 3.16,16.39l0.01 0.01c0.99,5.48 1.9,11 2.75,16.53l0.01 0.01c0.85,5.53 1.62,11.09 2.34,16.66l0.01 0.01c0.71,5.57 1.35,11.16 1.92,16.78l0.01 0.01c0.57,5.61 1.07,11.25 1.5,16.9l0.01 0.01c0.44,5.65 0.79,11.33 1.08,17.02l0.01 0.01c0.29,5.69 0.5,11.41 0.65,17.13l0.01 0.01c0.15,5.74 0.21,11.46 0.21,17.23l0.01 0.01 0 534.37 -0.01 0.78 0 14532.89 -1875.71 0 0 -13863 -16248.57 0 0 13863 -1875.71 0z"/>
  <path class="fil2" d="M9815.99 5542.62c0,-337.7 -162.09,-637.13 -440.98,-896.22 -423.86,-393.78 -1109.7,-694.77 -1914.92,-898.82 -817.93,-207.28 -1754.91,-312.57 -2666.7,-312.57 -1605.6,0 -3119.51,321.93 -3734.27,983.68l-257.7 -239.78c685.38,-737.77 2299.44,-1096.68 3991.97,-1096.68 938.47,0 1905.36,109 2752.14,323.59 859.5,217.8 1599.33,546.3 2069.26,982.88 350.36,325.48 553.98,710.23 553.98,1153.92l-352.78 0z"/>
  <path class="fil3" d="M1448.39 20007.6l17087.97 0c63.08,0 114.7,-51.61 114.7,-114.69l0 -356.03 -0.01 0 -17317.31 0 -0.05 0 0 356.03c0,63.08 51.62,114.69 114.7,114.69z"/>
  <rect class="fil4" x="4892.38" y="14819.27" width="10200" height="927.04"/>
  <rect class="fil1" x="1868.09" y="6485.56" width="15859.46" height="858.1"/>
  <polygon class="fil5" points="10518.47,8286.61 10518.47,8642.47 9992.39,9168.57 9992.39,9168.57 9466.31,8642.47 9466.31,8286.61 "/>
  <rect class="fil1" x="4344.41" y="14351.64" width="11295.93" height="467.64"/>
  <polygon class="fil1" points="4344.43,14351.64 9992.38,14351.64 9992.38,14819.27 4344.43,14819.27 "/>
  <path class="fil6" d="M-7.6 17995.58l0 -16782.94 0 -534.37c0,-368.9 301.77,-670.67 670.67,-670.67l534.37 0 8794.94 0 0 1875.71 -8124.27 0 0 16112.27c0,368.91 -301.77,670.68 -670.67,670.68l-534.37 0c-368.9,0 -670.67,-301.77 -670.67,-670.68z"/>
  <path class="fil7" d="M19992.4 17126.8l0 1068.74c0,737.77 -603.58,1341.34 -1341.35,1341.34l-17317.31 0c-737.77,0 -1341.34,-603.57 -1341.34,-1341.34l0 -1068.74 0 -1380.49 20000 0 0 1380.49z"/>
  <path class="fil8" d="M9992.38 19536.88l-8658.64 0c-737.77,0 -1341.34,-603.57 -1341.34,-1341.34l0 -1068.74 0 -1380.49 9999.98 0 0 3790.57z"/>
  <rect class="fil9" x="3931.03" y="16941.18" width="12122.69" height="1254.36"/>
  <polygon class="fil10" points="3931.05,16941.18 9992.38,16941.18 9992.38,18195.54 3931.05,18195.54 "/>
  <rect class="fil6" x="8860.03" y="5542.62" width="2264.7" height="2743.99"/>
  <path class="fil8" d="M-7.6 5542.62l1875.71 0c213.94,0 388.98,175.03 388.98,388.98l0 1966.03c0,213.95 -175.04,388.98 -388.98,388.98l-1875.71 0 0 -2743.99z"/>
  <path class="fil7" d="M19992.26 5542.62l-1875.71 0c-213.94,0 -388.98,175.03 -388.98,388.98l0 1966.03c0,213.95 175.04,388.98 388.98,388.98l1875.71 0 0 -2743.99z"/>
 </g>
</svg>
