<?xml version="1.0" encoding="UTF-8"?>
<!DOCTYPE svg PUBLIC "-//W3C//DTD SVG 1.1//EN" "http://www.w3.org/Graphics/SVG/1.1/DTD/svg11.dtd">
<!-- Creator: CorelDRAW 2020 (64 Bit) -->
<svg xmlns="http://www.w3.org/2000/svg" xml:space="preserve" width="200mm" height="200mm" version="1.1" style="shape-rendering:geometricPrecision; text-rendering:geometricPrecision; image-rendering:optimizeQuality; fill-rule:evenodd; clip-rule:evenodd"
viewBox="0 0 20000 20000"
 xmlns:xlink="http://www.w3.org/1999/xlink"
 xmlns:xodm="http://www.corel.com/coreldraw/odm/2003">
 <defs>
  <style type="text/css">
   <![CDATA[
    .fil0 {fill:#2E3E57}
    .fil1 {fill:#354966;fill-rule:nonzero}
   ]]>
  </style>
 </defs>
 <g id="Camada_x0020_1">
  <metadata id="CorelCorpID_0Corel-Layer"/>
  <path class="fil0" d="M4820.73 9664.26c1175.58,0 2252.93,-420.26 3090.26,-1118.62 16.51,-13.77 32.92,-27.65 49.24,-41.63 13.35,-11.44 26.64,-22.94 39.86,-34.52 9.79,-8.58 19.55,-17.21 29.27,-25.86l-6816.33 -6816.33c-8.65,9.72 -17.28,19.48 -25.86,29.27 -11.58,13.22 -23.08,26.51 -34.52,39.86 -13.99,16.32 -27.86,32.73 -41.63,49.24 -698.31,837.38 -1118.62,1914.68 -1118.62,3090.26 0,2666.61 2161.72,4828.33 4828.33,4828.33zm3607.72 -1619.7c8.84,-9.92 17.63,-19.88 26.38,-29.88 11.03,-12.6 22,-25.27 32.91,-37.99 14.45,-16.84 28.77,-33.78 42.98,-50.83 698.14,-837.33 1118.34,-1914.5 1118.34,-3089.93 0,-2666.61 -2161.72,-4828.33 -4828.33,-4828.33 -1175.42,0 -2252.66,420.16 -3089.93,1118.34 -17.05,14.22 -33.99,28.53 -50.83,42.98 -12.72,10.9 -25.38,21.87 -37.99,32.91 -10,8.75 -19.96,17.54 -29.88,26.38l6816.35 6816.35zm-4297.54 -4586.36l2158.62 2158.62 579.49 -490.91 -1677.22 -997.91 1793.46 -3150.89 -2854.35 2481.09zm1413.78 2789.6l-2149.81 -2149.81 -716.25 622.58 1651.96 971.52 -1674.39 3002.66 2888.49 -2446.95z"/>
  <path class="fil0" d="M8520.53 20007.6c-820.68,0 -1485.99,-665.31 -1485.99,-1485.99l0 -8922.11c560.68,-261.03 1067.62,-618.1 1499.64,-1050.12 432.02,-432.02 789.09,-938.96 1050.12,-1499.64l8922.11 0c820.68,0 1485.99,665.31 1485.99,1485.99l0 9985.88c0,820.68 -665.31,1485.99 -1485.99,1485.99l-9985.88 0zm4992.94 -10617.8c2285.84,0 4138.87,1853.03 4138.87,4138.87 0,2285.84 -1853.03,4138.87 -4138.87,4138.87 -2285.84,0 -4138.87,-1853.03 -4138.87,-4138.87 0,-2285.84 1853.03,-4138.87 4138.87,-4138.87z"/>
  <path class="fil1" d="M13513.47 12467.62c586.01,0 1061.05,475.04 1061.05,1061.05 0,586.01 -475.04,1061.05 -1061.05,1061.05 -586.01,0 -1061.05,-475.04 -1061.05,-1061.05 0,-586.01 475.04,-1061.05 1061.05,-1061.05z"/>
 </g>
</svg>
