<?xml version="1.0" encoding="UTF-8"?>
<!DOCTYPE svg PUBLIC "-//W3C//DTD SVG 1.1//EN" "http://www.w3.org/Graphics/SVG/1.1/DTD/svg11.dtd">
<!-- Creator: CorelDRAW 2020 (64 Bit) -->
<svg xmlns="http://www.w3.org/2000/svg" xml:space="preserve" width="200mm" height="200mm" version="1.1" style="shape-rendering:geometricPrecision; text-rendering:geometricPrecision; image-rendering:optimizeQuality; fill-rule:evenodd; clip-rule:evenodd"
viewBox="0 0 20000 20000"
 xmlns:xlink="http://www.w3.org/1999/xlink"
 xmlns:xodm="http://www.corel.com/coreldraw/odm/2003">
 <defs>
  <style type="text/css">
   <![CDATA[
    .str0 {stroke:#373435;stroke-width:20;stroke-miterlimit:22.9256;stroke-opacity:0.800000}
    .fil1 {fill:none;fill-rule:nonzero}
    .fil0 {fill:#FEFEFE;fill-rule:nonzero}
   ]]>
  </style>
 </defs>
 <g id="Camada_x0020_1">
  <metadata id="CorelCorpID_0Corel-Layer"/>
  <g>
   <polygon class="fil0" points="19992.86,9940.61 19992.83,9784.97 19992.69,9629.32 19992.36,9473.67 19991.78,9318.03 19990.85,9162.39 19989.51,9006.75 19987.69,8851.1 19985.29,8695.45 19982.24,8539.81 19978.46,8384.16 19973.89,8228.51 19968.45,8072.87 19962.05,7917.23 19954.61,7761.59 19946.06,7605.94 19936.34,7450.29 19925.34,7294.65 19913.02,7139 19899.26,6983.35 19884.02,6827.71 19867.2,6672.06 19848.74,6516.42 19828.55,6360.78 19806.55,6205.13 19769.7,5971.3 19756.24,5893.84 19727.06,5738.19 19695.66,5582.55 19661.97,5426.9 19625.91,5271.25 19587.4,5115.62 19543.31,4949.13 19500.71,4804.33 19452.11,4648.68 19400.59,4493.03 19346.07,4337.39 19316.92,4258.6 19287.06,4181.74 19223.27,4026.09 19085.13,3714.81 19007.05,3559.17 18925.11,3403.52 18864.14,3293.03 18837.9,3247.87 18743.24,3092.23 18637.74,2926.84 18535.51,2780.93 18411.35,2611.78 18184.95,2336.25 18165.22,2314 18021.48,2158.36 17958.56,2092.88 17732.16,1875.35 17700.45,1847.07 17505.78,1680.36 17279.38,1505.24 17052.99,1346.8 16826.59,1203.14 16600.2,1072.67 16373.81,954.9 16287.68,913.2 16147.42,847.58 15921.03,749.46 15694.63,661.33 15529.38,601.91 15468.24,580.64 15241.84,508.13 15031.27,446.26 15015.45,441.76 14789.06,382.93 14562.67,329.39 14381.59,290.61 14336.27,281.21 14109.88,238.91 13883.49,201.01 13657.09,167.26 13430.71,137.45 13409.22,134.97 13204.31,112.04 12977.92,90.04 12751.52,71.15 12525.13,55.11 12298.73,41.69 12072.35,30.67 11845.95,21.8 11619.56,14.85 11393.16,9.6 11166.77,5.79 10940.38,3.21 10713.99,1.6 10487.6,0.74 10261.2,0.4 10034.81,0.33 9808.41,0.35 9582.02,0.57 9355.63,1.2 9129.24,2.5 8902.84,4.69 8676.45,8.02 8450.06,12.7 8223.66,18.98 7997.28,27.1 7770.88,37.29 7544.49,49.78 7318.09,64.8 7091.7,82.6 6865.3,103.41 6638.92,127.46 6577.14,134.97 6412.52,155.63 6186.13,187.86 5959.73,224.17 5733.34,264.8 5603.99,290.61 5506.95,310.62 5280.56,362.23 5054.17,419.03 4955.19,446.26 4827.77,482.47 4601.38,552.69 4455.53,601.91 4374.98,630 4148.59,715.57 4045.84,757.55 3922.2,809.78 3695.07,913.2 3469.41,1027.41 3393.05,1068.84 3243.02,1153.13 3124.25,1224.48 3016.63,1291.47 2883.15,1380.13 2790.23,1444.11 2665.24,1535.77 2563.85,1612.92 2466.76,1691.42 2337.45,1799.97 2284.57,1847.07 2111.06,2007.81 1963.3,2158.36 1884.66,2241.72 1820.19,2314 1686.86,2469.65 1658.27,2504.43 1564.19,2625.29 1448.03,2780.93 1431.87,2803.52 1341.66,2936.58 1240.7,3092.23 1205.48,3149 1147.24,3247.87 1059.69,3403.52 976.33,3559.17 900.64,3714.81 828.63,3870.45 760.18,4026.09 752.7,4044.02 697.95,4181.74 639.3,4337.39 583.79,4493.03 531.33,4648.68 526.3,4664.49 483.92,4804.33 439.48,4959.97 397.7,5115.62 358.49,5271.25 321.79,5426.9 299.91,5526.22 288.07,5582.55 257.58,5738.19 229.22,5893.84 202.94,6049.49 178.66,6205.13 156.27,6360.78 135.74,6516.42 116.96,6672.06 99.84,6827.71 84.34,6983.35 73.52,7103.66 70.48,7139 58.5,7294.65 47.81,7450.29 38.35,7605.94 30.04,7761.59 22.82,7917.23 16.59,8072.87 11.3,8228.51 6.86,8384.16 3.19,8539.81 0.23,8695.45 -2.1,8851.1 -3.88,9006.75 -5.18,9162.39 -6.08,9318.03 -6.65,9473.67 -6.96,9629.32 -7.09,9784.97 -7.14,9940.61 -7.13,10096.26 -7.08,10251.91 -6.91,10407.55 -6.54,10563.2 -5.9,10718.83 -4.92,10874.48 -3.51,11030.13 -1.62,11185.77 0.85,11341.42 3.97,11497.07 7.8,11652.71 12.43,11808.36 17.93,11964.01 24.38,12119.64 31.85,12275.29 40.41,12430.93 50.14,12586.58 61.12,12742.23 73.41,12897.87 103.6,13209.17 121.09,13364.81 140.27,13520.45 161.22,13676.09 184.03,13831.74 208.76,13987.39 235.51,14143.03 264.34,14298.68 295.34,14454.33 299.91,14475.73 329.95,14609.97 367.21,14765.61 407,14921.25 449.38,15076.9 494.44,15232.55 526.3,15336.26 543.04,15388.19 596.2,15543.84 652.41,15699.49 711.78,15855.13 752.7,15956.82 844.76,16166.41 917.6,16322.06 979.09,16447.13 1079.32,16633.35 1167.81,16789 1205.48,16852.31 1365.35,17100.29 1431.87,17197.44 1474.1,17255.94 1591.4,17411.59 1658.27,17496.67 1851.4,17722.87 1884.66,17759.83 2111.06,17993.04 2154.18,18034.16 2323.89,18189.81 2510.08,18345.45 2563.85,18388.56 2713.01,18501.1 2790.23,18557.26 3016.63,18709.92 3243.02,18848.4 3457.68,18968.03 3695.81,19088.05 3922.2,19191.5 4131.69,19279.32 4148.59,19286.17 4374.98,19371.11 4601.38,19448.99 5054.17,19582.55 5085.51,19590.61 5280.56,19639.2 5506.95,19690.43 5733.34,19736.74 5785.07,19746.26 5959.73,19777.38 6186.13,19813.43 6412.52,19845.43 6638.92,19873.63 6865.3,19898.27 6903.86,19901.91 7091.7,19919.04 7318.09,19936.72 7544.49,19951.64 7770.88,19964.04 7997.28,19974.16 8223.66,19982.21 8450.06,19988.45 8676.45,19993.11 8902.84,19996.4 9129.24,19998.58 9355.63,19999.87 9582.02,20000.5 9808.41,20000.71 10034.81,20000.73 10261.2,20000.67 10487.6,20000.33 10713.99,19999.47 10940.38,19997.88 11166.77,19995.31 11393.16,19991.53 11619.56,19986.31 11845.95,19979.42 12072.35,19970.61 12298.73,19959.66 12525.13,19946.35 12751.52,19930.41 12977.92,19911.65 13078.97,19901.91 13204.31,19889.43 13430.71,19863.47 13657.09,19833.87 13883.49,19800.37 14109.88,19762.75 14198.77,19746.26 14336.27,19719.92 14562.67,19671.79 14789.06,19618.65 14897.74,19590.61 15015.45,19559.25 15241.84,19493.22 15425.11,19434.97 15468.24,19420.8 15694.63,19340 15851.69,19279.32 15921.03,19251.62 16147.42,19153.99 16212.71,19123.67 16373.81,19046.3 16525.62,18968.03 16600.2,18928.22 16802.81,18812.39 16826.59,18798.3 17050.31,18656.75 17273.01,18501.1 17475.01,18345.45 17505.78,18320.8 17659.67,18189.81 17732.16,18125.72 17829.83,18034.16 17958.56,17908.73 17987.86,17878.51 18132.91,17722.87 18184.95,17664.73 18267.55,17567.22 18394.08,17411.59 18411.35,17389.42 18509.95,17255.94 18620.09,17100.29 18637.74,17074.23 18721.02,16944.65 18816.67,16789 18864.14,16708.15 18905.85,16633.35 18988.69,16477.71 19067.64,16322.06 19090.52,16274.67 19140.25,16166.41 19208.25,16010.78 19272.8,15855.13 19316.92,15742.95 19333.2,15699.49 19388.41,15543.84 19440.61,15388.19 19489.87,15232.55 19536.29,15076.9 19543.31,15051.89 19578.26,14921.25 19617.33,14765.61 19653.95,14609.97 19688.18,14454.33 19720.09,14298.68 19749.76,14143.03 19769.7,14030.35 19776.96,13987.39 19801.27,13831.74 19823.68,13676.09 19844.28,13520.45 19863.14,13364.81 19880.32,13209.17 19895.91,13053.52 19910,12897.87 19922.65,12742.23 19933.94,12586.58 19943.96,12430.93 19952.76,12275.29 19960.44,12119.64 19967.08,11964.01 19972.74,11808.36 19977.5,11652.71 19981.45,11497.07 19984.65,11341.42 19987.19,11185.77 19989.15,11030.13 19990.59,10874.48 19991.6,10718.83 19992.26,10563.2 19992.63,10407.55 19992.81,10251.91 19992.85,10096.26 " text-anchor="start" dominant-baseline="alphabetic" paint-order="fill stroke markers"/>
   <polygon id="1" class="fil1 str0" points="19992.86,9940.61 19992.83,9784.97 19992.69,9629.32 19992.36,9473.67 19991.78,9318.03 19990.85,9162.39 19989.51,9006.75 19987.69,8851.1 19985.29,8695.45 19982.24,8539.81 19978.46,8384.16 19973.89,8228.51 19968.45,8072.87 19962.05,7917.23 19954.61,7761.59 19946.06,7605.94 19936.34,7450.29 19925.34,7294.65 19913.02,7139 19899.26,6983.35 19884.02,6827.71 19867.2,6672.06 19848.74,6516.42 19828.55,6360.78 19806.55,6205.13 19769.7,5971.3 19756.24,5893.84 19727.06,5738.19 19695.66,5582.55 19661.97,5426.9 19625.91,5271.25 19587.4,5115.62 19543.31,4949.13 19500.71,4804.33 19452.11,4648.68 19400.59,4493.03 19346.07,4337.39 19316.92,4258.6 19287.06,4181.74 19223.27,4026.09 19085.13,3714.81 19007.05,3559.17 18925.11,3403.52 18864.14,3293.03 18837.9,3247.87 18743.24,3092.23 18637.74,2926.84 18535.51,2780.93 18411.35,2611.78 18184.95,2336.25 18165.22,2314 18021.48,2158.36 17958.56,2092.88 17732.16,1875.35 17700.45,1847.07 17505.78,1680.36 17279.38,1505.24 17052.99,1346.8 16826.59,1203.14 16600.2,1072.67 16373.81,954.9 16287.68,913.2 16147.42,847.58 15921.03,749.46 15694.63,661.33 15529.38,601.91 15468.24,580.64 15241.84,508.13 15031.27,446.26 15015.45,441.76 14789.06,382.93 14562.67,329.39 14381.59,290.61 14336.27,281.21 14109.88,238.91 13883.49,201.01 13657.09,167.26 13430.71,137.45 13409.22,134.97 13204.31,112.04 12977.92,90.04 12751.52,71.15 12525.13,55.11 12298.73,41.69 12072.35,30.67 11845.95,21.8 11619.56,14.85 11393.16,9.6 11166.77,5.79 10940.38,3.21 10713.99,1.6 10487.6,0.74 10261.2,0.4 10034.81,0.33 9808.41,0.35 9582.02,0.57 9355.63,1.2 9129.24,2.5 8902.84,4.69 8676.45,8.02 8450.06,12.7 8223.66,18.98 7997.28,27.1 7770.88,37.29 7544.49,49.78 7318.09,64.8 7091.7,82.6 6865.3,103.41 6638.92,127.46 6577.14,134.97 6412.52,155.63 6186.13,187.86 5959.73,224.17 5733.34,264.8 5603.99,290.61 5506.95,310.62 5280.56,362.23 5054.17,419.03 4955.19,446.26 4827.77,482.47 4601.38,552.69 4455.53,601.91 4374.98,630 4148.59,715.57 4045.84,757.55 3922.2,809.78 3695.07,913.2 3469.41,1027.41 3393.05,1068.84 3243.02,1153.13 3124.25,1224.48 3016.63,1291.47 2883.15,1380.13 2790.23,1444.11 2665.24,1535.77 2563.85,1612.92 2466.76,1691.42 2337.45,1799.97 2284.57,1847.07 2111.06,2007.81 1963.3,2158.36 1884.66,2241.72 1820.19,2314 1686.86,2469.65 1658.27,2504.43 1564.19,2625.29 1448.03,2780.93 1431.87,2803.52 1341.66,2936.58 1240.7,3092.23 1205.48,3149 1147.24,3247.87 1059.69,3403.52 976.33,3559.17 900.64,3714.81 828.63,3870.45 760.18,4026.09 752.7,4044.02 697.95,4181.74 639.3,4337.39 583.79,4493.03 531.33,4648.68 526.3,4664.49 483.92,4804.33 439.48,4959.97 397.7,5115.62 358.49,5271.25 321.79,5426.9 299.91,5526.22 288.07,5582.55 257.58,5738.19 229.22,5893.84 202.94,6049.49 178.66,6205.13 156.27,6360.78 135.74,6516.42 116.96,6672.06 99.84,6827.71 84.34,6983.35 73.52,7103.66 70.48,7139 58.5,7294.65 47.81,7450.29 38.35,7605.94 30.04,7761.59 22.82,7917.23 16.59,8072.87 11.3,8228.51 6.86,8384.16 3.19,8539.81 0.23,8695.45 -2.1,8851.1 -3.88,9006.75 -5.18,9162.39 -6.08,9318.03 -6.65,9473.67 -6.96,9629.32 -7.09,9784.97 -7.14,9940.61 -7.13,10096.26 -7.08,10251.91 -6.91,10407.55 -6.54,10563.2 -5.9,10718.83 -4.92,10874.48 -3.51,11030.13 -1.62,11185.77 0.85,11341.42 3.97,11497.07 7.8,11652.71 12.43,11808.36 17.93,11964.01 24.38,12119.64 31.85,12275.29 40.41,12430.93 50.14,12586.58 61.12,12742.23 73.41,12897.87 103.6,13209.17 121.09,13364.81 140.27,13520.45 161.22,13676.09 184.03,13831.74 208.76,13987.39 235.51,14143.03 264.34,14298.68 295.34,14454.33 299.91,14475.73 329.95,14609.97 367.21,14765.61 407,14921.25 449.38,15076.9 494.44,15232.55 526.3,15336.26 543.04,15388.19 596.2,15543.84 652.41,15699.49 711.78,15855.13 752.7,15956.82 844.76,16166.41 917.6,16322.06 979.09,16447.13 1079.32,16633.35 1167.81,16789 1205.48,16852.31 1365.35,17100.29 1431.87,17197.44 1474.1,17255.94 1591.4,17411.59 1658.27,17496.67 1851.4,17722.87 1884.66,17759.83 2111.06,17993.04 2154.18,18034.16 2323.89,18189.81 2510.08,18345.45 2563.85,18388.56 2713.01,18501.1 2790.23,18557.26 3016.63,18709.92 3243.02,18848.4 3457.68,18968.03 3695.81,19088.05 3922.2,19191.5 4131.69,19279.32 4148.59,19286.17 4374.98,19371.11 4601.38,19448.99 5054.17,19582.55 5085.51,19590.61 5280.56,19639.2 5506.95,19690.43 5733.34,19736.74 5785.07,19746.26 5959.73,19777.38 6186.13,19813.43 6412.52,19845.43 6638.92,19873.63 6865.3,19898.27 6903.86,19901.91 7091.7,19919.04 7318.09,19936.72 7544.49,19951.64 7770.88,19964.04 7997.28,19974.16 8223.66,19982.21 8450.06,19988.45 8676.45,19993.11 8902.84,19996.4 9129.24,19998.58 9355.63,19999.87 9582.02,20000.5 9808.41,20000.71 10034.81,20000.73 10261.2,20000.67 10487.6,20000.33 10713.99,19999.47 10940.38,19997.88 11166.77,19995.31 11393.16,19991.53 11619.56,19986.31 11845.95,19979.42 12072.35,19970.61 12298.73,19959.66 12525.13,19946.35 12751.52,19930.41 12977.92,19911.65 13078.97,19901.91 13204.31,19889.43 13430.71,19863.47 13657.09,19833.87 13883.49,19800.37 14109.88,19762.75 14198.77,19746.26 14336.27,19719.92 14562.67,19671.79 14789.06,19618.65 14897.74,19590.61 15015.45,19559.25 15241.84,19493.22 15425.11,19434.97 15468.24,19420.8 15694.63,19340 15851.69,19279.32 15921.03,19251.62 16147.42,19153.99 16212.71,19123.67 16373.81,19046.3 16525.62,18968.03 16600.2,18928.22 16802.81,18812.39 16826.59,18798.3 17050.31,18656.75 17273.01,18501.1 17475.01,18345.45 17505.78,18320.8 17659.67,18189.81 17732.16,18125.72 17829.83,18034.16 17958.56,17908.73 17987.86,17878.51 18132.91,17722.87 18184.95,17664.73 18267.55,17567.22 18394.08,17411.59 18411.35,17389.42 18509.95,17255.94 18620.09,17100.29 18637.74,17074.23 18721.02,16944.65 18816.67,16789 18864.14,16708.15 18905.85,16633.35 18988.69,16477.71 19067.64,16322.06 19090.52,16274.67 19140.25,16166.41 19208.25,16010.78 19272.8,15855.13 19316.92,15742.95 19333.2,15699.49 19388.41,15543.84 19440.61,15388.19 19489.87,15232.55 19536.29,15076.9 19543.31,15051.89 19578.26,14921.25 19617.33,14765.61 19653.95,14609.97 19688.18,14454.33 19720.09,14298.68 19749.76,14143.03 19769.7,14030.35 19776.96,13987.39 19801.27,13831.74 19823.68,13676.09 19844.28,13520.45 19863.14,13364.81 19880.32,13209.17 19895.91,13053.52 19910,12897.87 19922.65,12742.23 19933.94,12586.58 19943.96,12430.93 19952.76,12275.29 19960.44,12119.64 19967.08,11964.01 19972.74,11808.36 19977.5,11652.71 19981.45,11497.07 19984.65,11341.42 19987.19,11185.77 19989.15,11030.13 19990.59,10874.48 19991.6,10718.83 19992.26,10563.2 19992.63,10407.55 19992.81,10251.91 19992.85,10096.26 "/>
  </g>
 </g>
</svg>
