<?xml version="1.0" encoding="UTF-8"?>
<!DOCTYPE svg PUBLIC "-//W3C//DTD SVG 1.1//EN" "http://www.w3.org/Graphics/SVG/1.1/DTD/svg11.dtd">
<!-- Creator: CorelDRAW 2020 (64 Bit) -->
<svg xmlns="http://www.w3.org/2000/svg" xml:space="preserve" width="200mm" height="200mm" version="1.1" style="shape-rendering:geometricPrecision; text-rendering:geometricPrecision; image-rendering:optimizeQuality; fill-rule:evenodd; clip-rule:evenodd"
viewBox="0 0 20000 20000"
 xmlns:xlink="http://www.w3.org/1999/xlink"
 xmlns:xodm="http://www.corel.com/coreldraw/odm/2003">
 <defs>
  <style type="text/css">
   <![CDATA[
    .fil0 {fill:#FFFFFF;fill-rule:nonzero}
   ]]>
  </style>
 </defs>
 <g id="Camada_x0020_1">
  <metadata id="CorelCorpID_0Corel-Layer"/>
  <path class="fil0" d="M10849.37 4382.8l7158.22 4132.81c259.24,144.86 484.13,359.1 643.78,634.73 473.1,816.83 194.45,1862.54 -622.38,2335.65l-7179.62 4145.16 -1.71 -2.95 -7042.45 4066.02c-279.95,199.18 -622.35,316.32 -992.09,316.32 -946.2,0 -1713.26,-767.06 -1713.26,-1713.26l0 -16580.62 7.15 0c-0.27,-288.8 72.86,-581.55 227.09,-849.93 469.4,-816.83 1512.11,-1098.48 2328.95,-629.08l7091.02 4094c32.07,15.99 63.86,32.95 95.3,51.15z"/>
 </g>
</svg>
