<?xml version="1.0" encoding="UTF-8"?>
<!DOCTYPE svg PUBLIC "-//W3C//DTD SVG 1.1//EN" "http://www.w3.org/Graphics/SVG/1.1/DTD/svg11.dtd">
<!-- Creator: CorelDRAW 2020 (64 Bit) -->
<svg xmlns="http://www.w3.org/2000/svg" xml:space="preserve" width="200mm" height="200mm" version="1.1" style="shape-rendering:geometricPrecision; text-rendering:geometricPrecision; image-rendering:optimizeQuality; fill-rule:evenodd; clip-rule:evenodd"
viewBox="0 0 20000 20000"
 xmlns:xlink="http://www.w3.org/1999/xlink"
 xmlns:xodm="http://www.corel.com/coreldraw/odm/2003">
 <defs>
  <style type="text/css">
   <![CDATA[
    .fil0 {fill:#FFFFFF}
   ]]>
  </style>
 </defs>
 <g id="Camada_x0020_1">
  <metadata id="CorelCorpID_0Corel-Layer"/>
  <path class="fil0" d="M13750.21 7087.06l0 -3539.74 -1769.87 0 3539.73 -3539.72 3539.73 3539.72 -1769.85 0 0 3539.74 -3539.74 0zm-10700.83 -4293.98l8634.05 0 -223.88 223.88c-137.36,134.87 -222.58,322.66 -222.58,530.36 0,410.55 332.82,743.37 743.37,743.37l1026.5 0 0 2796.37c0,410.55 332.82,743.37 743.37,743.37l1782.86 0 0 11547.9c0,346.1 -283.17,629.27 -629.27,629.27l-11854.42 0c-346.1,0 -629.27,-283.17 -629.27,-629.27l0 -15955.98c0,-346.1 283.17,-629.27 629.27,-629.27zm953.04 2919.39c-97.41,0 -176.39,-78.98 -176.39,-176.39 0,-97.41 78.98,-176.39 176.39,-176.39l8020.73 0c97.41,0 176.39,78.98 176.39,176.39 0,97.41 -78.98,176.39 -176.39,176.39l-8020.73 0zm0 2000c-97.41,0 -176.39,-78.98 -176.39,-176.39 0,-97.41 78.98,-176.39 176.39,-176.39l8020.73 0c97.41,0 176.39,78.98 176.39,176.39 0,97.41 -78.98,176.39 -176.39,176.39l-8020.73 0zm0 2000c-97.41,0 -176.39,-78.98 -176.39,-176.39 0,-97.41 78.98,-176.39 176.39,-176.39l9948.34 0c97.41,0 176.39,78.98 176.39,176.39 0,97.41 -78.98,176.39 -176.39,176.39l-9948.34 0zm0 8000c-97.41,0 -176.39,-78.98 -176.39,-176.39 0,-97.41 78.98,-176.39 176.39,-176.39l9948.34 0c97.41,0 176.39,78.98 176.39,176.39 0,97.41 -78.98,176.39 -176.39,176.39l-9948.34 0zm0 -2000c-97.41,0 -176.39,-78.98 -176.39,-176.39 0,-97.41 78.98,-176.39 176.39,-176.39l9948.34 0c97.41,0 176.39,78.98 176.39,176.39 0,97.41 -78.98,176.39 -176.39,176.39l-9948.34 0zm0 -2000c-97.41,0 -176.39,-78.98 -176.39,-176.39 0,-97.41 78.98,-176.39 176.39,-176.39l9948.34 0c97.41,0 176.39,78.98 176.39,176.39 0,97.41 -78.98,176.39 -176.39,176.39l-9948.34 0zm0 -2000c-97.41,0 -176.39,-78.98 -176.39,-176.39 0,-97.41 78.98,-176.39 176.39,-176.39l9948.34 0c97.41,0 176.39,78.98 176.39,176.39 0,97.41 -78.98,176.39 -176.39,176.39l-9948.34 0z"/>
 </g>
</svg>
